<svg width="56" height="56" viewBox="0 0 56 56" fill="none" xmlns="http://www.w3.org/2000/svg">
<g filter="url(#filter0_d_2_23)">
<circle cx="28" cy="27" r="18" fill="white"/>
</g>
<g clip-path="url(#clip0_2_23)">
<path d="M28 19.5C30.0378 19.5 30.292 19.5075 31.0915 19.545C31.8903 19.5825 32.434 19.7078 32.9125 19.8938C33.4075 20.0843 33.8245 20.3422 34.2415 20.7585C34.6229 21.1334 34.918 21.5869 35.1063 22.0875C35.2915 22.5652 35.4175 23.1097 35.455 23.9085C35.4903 24.708 35.5 24.9622 35.5 27C35.5 29.0378 35.4925 29.292 35.455 30.0915C35.4175 30.8903 35.2915 31.434 35.1063 31.9125C34.9185 32.4133 34.6233 32.867 34.2415 33.2415C33.8665 33.6227 33.413 33.9178 32.9125 34.1063C32.4347 34.2915 31.8903 34.4175 31.0915 34.455C30.292 34.4903 30.0378 34.5 28 34.5C25.9622 34.5 25.708 34.4925 24.9085 34.455C24.1097 34.4175 23.566 34.2915 23.0875 34.1063C22.5867 33.9184 22.1331 33.6232 21.7585 33.2415C21.3771 32.8666 21.0819 32.4131 20.8938 31.9125C20.7078 31.4347 20.5825 30.8903 20.545 30.0915C20.5097 29.292 20.5 29.0378 20.5 27C20.5 24.9622 20.5075 24.708 20.545 23.9085C20.5825 23.109 20.7078 22.566 20.8938 22.0875C21.0814 21.5866 21.3766 21.133 21.7585 20.7585C22.1333 20.3769 22.5868 20.0818 23.0875 19.8938C23.566 19.7078 24.109 19.5825 24.9085 19.545C25.708 19.5097 25.9622 19.5 28 19.5ZM28 23.25C27.0054 23.25 26.0516 23.6451 25.3483 24.3483C24.6451 25.0516 24.25 26.0054 24.25 27C24.25 27.9946 24.6451 28.9484 25.3483 29.6517C26.0516 30.3549 27.0054 30.75 28 30.75C28.9946 30.75 29.9484 30.3549 30.6517 29.6517C31.3549 28.9484 31.75 27.9946 31.75 27C31.75 26.0054 31.3549 25.0516 30.6517 24.3483C29.9484 23.6451 28.9946 23.25 28 23.25ZM32.875 23.0625C32.875 22.8139 32.7762 22.5754 32.6004 22.3996C32.4246 22.2238 32.1861 22.125 31.9375 22.125C31.6889 22.125 31.4504 22.2238 31.2746 22.3996C31.0988 22.5754 31 22.8139 31 23.0625C31 23.3111 31.0988 23.5496 31.2746 23.7254C31.4504 23.9012 31.6889 24 31.9375 24C32.1861 24 32.4246 23.9012 32.6004 23.7254C32.7762 23.5496 32.875 23.3111 32.875 23.0625ZM28 24.75C28.5967 24.75 29.169 24.9871 29.591 25.409C30.0129 25.831 30.25 26.4033 30.25 27C30.25 27.5967 30.0129 28.169 29.591 28.591C29.169 29.0129 28.5967 29.25 28 29.25C27.4033 29.25 26.831 29.0129 26.409 28.591C25.9871 28.169 25.75 27.5967 25.75 27C25.75 26.4033 25.9871 25.831 26.409 25.409C26.831 24.9871 27.4033 24.75 28 24.75Z" fill="#696969"/>
</g>
<defs>
<filter id="filter0_d_2_23" x="0" y="0" width="56" height="56" filterUnits="userSpaceOnUse" color-interpolation-filters="sRGB">
<feFlood flood-opacity="0" result="BackgroundImageFix"/>
<feColorMatrix in="SourceAlpha" type="matrix" values="0 0 0 0 0 0 0 0 0 0 0 0 0 0 0 0 0 0 127 0" result="hardAlpha"/>
<feOffset dy="1"/>
<feGaussianBlur stdDeviation="5"/>
<feColorMatrix type="matrix" values="0 0 0 0 0 0 0 0 0 0 0 0 0 0 0 0 0 0 0.1 0"/>
<feBlend mode="normal" in2="BackgroundImageFix" result="effect1_dropShadow_2_23"/>
<feBlend mode="normal" in="SourceGraphic" in2="effect1_dropShadow_2_23" result="shape"/>
</filter>
<clipPath id="clip0_2_23">
<rect width="18" height="18" fill="white" transform="translate(19 18)"/>
</clipPath>
</defs>
</svg>
