<svg width="56" height="56" viewBox="0 0 56 56" fill="none" xmlns="http://www.w3.org/2000/svg">
<g filter="url(#filter0_d_2_28)">
<circle cx="28" cy="27" r="18" fill="white"/>
</g>
<g clip-path="url(#clip0_2_28)">
<path d="M35.2596 22.8735C35.5834 24.21 35.5834 27 35.5834 27C35.5834 27 35.5834 29.79 35.2596 31.1265C35.0797 31.8653 34.5534 32.4465 33.8869 32.643C32.6764 33 28.5 33 28.5 33C28.5 33 24.3258 33 23.1131 32.643C22.4438 32.4435 21.9182 31.863 21.7404 31.1265C21.4167 29.79 21.4167 27 21.4167 27C21.4167 27 21.4167 24.21 21.7404 22.8735C21.9203 22.1348 22.4466 21.5535 23.1131 21.357C24.3258 21 28.5 21 28.5 21C28.5 21 32.6764 21 33.8869 21.357C34.5563 21.5565 35.0819 22.137 35.2596 22.8735ZM27.0834 29.625L31.3334 27L27.0834 24.375V29.625Z" fill="#696969"/>
</g>
<defs>
<filter id="filter0_d_2_28" x="0" y="0" width="56" height="56" filterUnits="userSpaceOnUse" color-interpolation-filters="sRGB">
<feFlood flood-opacity="0" result="BackgroundImageFix"/>
<feColorMatrix in="SourceAlpha" type="matrix" values="0 0 0 0 0 0 0 0 0 0 0 0 0 0 0 0 0 0 127 0" result="hardAlpha"/>
<feOffset dy="1"/>
<feGaussianBlur stdDeviation="5"/>
<feColorMatrix type="matrix" values="0 0 0 0 0 0 0 0 0 0 0 0 0 0 0 0 0 0 0.1 0"/>
<feBlend mode="normal" in2="BackgroundImageFix" result="effect1_dropShadow_2_28"/>
<feBlend mode="normal" in="SourceGraphic" in2="effect1_dropShadow_2_28" result="shape"/>
</filter>
<clipPath id="clip0_2_28">
<rect width="17" height="18" fill="white" transform="translate(20 18)"/>
</clipPath>
</defs>
</svg>
